<svg height="512px" style="enable-background:new 0 0 512 512;" version="1.1" viewBox="0 0 512 512" width="512px"
     xml:space="preserve" xmlns="http://www.w3.org/2000/svg"><g id="_x31_25-fedex"><g><path d="M251.777,183.644v61.553h-0.36c-6.899-7.906-15.452-10.637-25.443-10.637    c-20.412,0-35.793,13.943-41.184,32.271c-12.937-42.694-70.006-41.4-87.615-10.063v-17.393H57.787v-18.831h43.125v-29.541H22.568    V323.54h35.219v-55.703h35.147c-1.079,4.097-1.653,8.483-1.653,13.081c0,52.542,73.744,65.692,93.58,17.034h-30.187    c-10.566,15.022-32.919,6.396-32.919-10.493h61.453c2.659,21.921,19.694,40.897,43.197,40.897    c10.134,0,19.407-4.959,25.084-13.371h0.359v8.555h44.717v-19.896v-30v-30v-40l0.002-20H251.777z M122.688,268.123    c4.386-18.902,29.973-18.398,33.423,0H122.688z M232.946,303.272c-24.869,0-24.438-45.139,0-45.139    C256.377,258.134,257.742,303.272,232.946,303.272z" style="fill:#442E8C;"/><polygon
        points="375.345,323.332 296.156,323.332 296.156,183.661 375.848,183.661 375.848,208.995     328.787,208.995 328.787,237.432 375.345,237.432 375.345,261.004 328.283,261.004 328.283,298.503 375.345,298.503     375.345,323.332   "
        style="fill:#F47624;"/><polygon
        points="433.393,298.585 411.496,323.333 379.537,323.333 417.789,280.382 379.537,237.429     412.84,237.429 435.154,262.01 456.631,237.429 488.928,237.429 450.844,280.215 489.432,323.333 455.456,323.333     433.393,298.585   "
        style="fill:#F47624;"/></g></g>
    <g id="Layer_1"/></svg>