<svg width="64px" height="64px" viewBox="0 0 24 24" fill="none" xmlns="http://www.w3.org/2000/svg"><g id="SVGRepo_bgCarrier" stroke-width="0"></g><g id="SVGRepo_tracerCarrier" stroke-linecap="round" stroke-linejoin="round"></g><g id="SVGRepo_iconCarrier"> <path fill-rule="evenodd" clip-rule="evenodd" d="M16.5 6H3V17.25H3.375H4.5H4.52658C4.70854 18.5221 5.80257 19.5 7.125 19.5C8.44743 19.5 9.54146 18.5221 9.72342 17.25H15.0266C15.2085 18.5221 16.3026 19.5 17.625 19.5C18.9474 19.5 20.0415 18.5221 20.2234 17.25H21.75V12.4393L18.3107 9H16.5V6ZM16.5 10.5V14.5026C16.841 14.3406 17.2224 14.25 17.625 14.25C18.6721 14.25 19.5761 14.8631 19.9974 15.75H20.25V13.0607L17.6893 10.5H16.5ZM15 15.75V9V7.5H4.5V15.75H4.75261C5.17391 14.8631 6.07785 14.25 7.125 14.25C8.17215 14.25 9.07609 14.8631 9.49739 15.75H15ZM17.625 18C17.0037 18 16.5 17.4963 16.5 16.875C16.5 16.2537 17.0037 15.75 17.625 15.75C18.2463 15.75 18.75 16.2537 18.75 16.875C18.75 17.4963 18.2463 18 17.625 18ZM8.25 16.875C8.25 17.4963 7.74632 18 7.125 18C6.50368 18 6 17.4963 6 16.875C6 16.2537 6.50368 15.75 7.125 15.75C7.74632 15.75 8.25 16.2537 8.25 16.875Z" fill="#000000"></path> </g></svg>