<svg width="177" height="45" viewBox="0 0 177 45" fill="none" xmlns="http://www.w3.org/2000/svg">
    <g clip-path="url(#clip0_74_1039)">
        <path d="M30.1371 44.2756L38.7086 9.72787L41.0057 45H50.6229L47.6914 0.017248H32.6743L25.32 30.253L17.9486 0.017248H2.93143L0 45H9.61714L11.9143 9.72787L20.4857 44.2756H30.1371ZM158.657 17.0583H164.451L166.457 13.3499L164.469 9.71062H158.657V17.0583ZM142.08 17.0583H147.154V31.6328C147.154 39.2909 149.074 45 157.474 45C160.509 45 163.029 44.2238 164.451 43.6547V35.4791C159.429 36.4278 156.977 36.7382 156.977 30.0115V0H147.154V9.72787H142.851L142.08 17.0583ZM95.9314 30.2702C96.6 38.7562 109.731 37.2729 115.406 35.4791L116.811 42.8095C103.526 47.9149 85.8 44.5861 85.8 27.2001C85.8 4.03603 118.714 1.51782 118.714 25.9927C118.714 27.8383 118.509 29.4768 118.371 30.253H95.9314V30.2702ZM108.754 22.8708C108.754 13.2982 95.9143 13.1602 96 22.8708H108.754ZM129.771 19.0418C129.771 14.6263 137.931 16.0579 140.4 17.0583L141.154 9.72787C132.891 7.15792 120.069 9.07244 120.086 20.0249C119.914 30.8222 135.72 29.3388 135.72 34.4787C135.72 39.8946 123.343 37.1177 120.651 35.4791L119.246 42.8268C128.434 46.9145 145.903 46.0004 145.44 33.7371C145.286 21.8187 129.771 23.923 129.771 19.0418Z" fill="#0056A4"></path>
        <path d="M61.3204 30.2702C61.989 38.7562 75.1204 37.2729 80.7947 35.4791L82.2004 42.8095C68.9147 47.9149 51.189 44.5861 51.189 27.2001C51.189 4.03603 84.1032 1.51782 84.1032 25.9927C84.1032 27.8383 83.8975 29.4768 83.7604 30.253H61.3204V30.2702ZM74.1432 22.8708C74.1432 13.2982 61.3032 13.1602 61.389 22.8708H74.1432Z" fill="#E40137"></path>
        <path d="M169.697 0L177 13.3499L169.697 26.7861H162.394L169.697 13.3499L162.394 0H169.697Z" fill="#E40137"></path>
    </g>
    <defs>
        <clipPath id="clip0_74_1039">
            <rect width="177" height="45" fill="white"></rect>
        </clipPath>
    </defs>
</svg>