<svg viewBox="0 0 21 16" xmlns="http://www.w3.org/2000/svg"><path d="m10.2498791 9.15395175c-.0113074-.89150084.7944951-1.38902734 1.401525-1.68480566.6236936-.30351497.8331784-.49812163.8307978-.76949972-.004761-.41539892-.4975265-.59869816-.9587502-.60583968-.8046122-.01249768-1.2723824.2172215-1.64433693.39099869l-.28982704-1.35629533c.37314482-.17199181 1.06408777-.32196392 1.78062117-.32851032 1.6818299 0 2.7822205.83020271 2.7881718 2.11746327.0065464 1.63362469-2.2596987 1.72408406-2.2442254 2.45430536.0053561.22138739.2166264.45765298.6796354.51776083.2291241.03035149.8617446.05356147 1.5788731-.27673424l.2814952 1.31225595c-.3856426.14045-.8813837.2749488-1.4985307.2749488-1.5830389 0-2.6965223-.8415101-2.7054492-2.04604795m6.9088339 1.93297375c-.3070858 0-.5659661-.1791333-.6814209-.4540822l-2.4025293-5.73643293h1.6806398l.3344616.92423284h2.0537846l.1940115-.92423284h1.4812721l-1.2926167 6.19051513zm.2350753-1.67230795.4850288-2.32456761h-1.3283243zm-9.18162544 1.67230795-1.32475353-6.19051513h1.60148776l1.32415847 6.19051513zm-2.3692021 0-1.66695183-4.21350193-.67427935 3.58266693c-.07915194.3999256-.39159382.630835-.73855309.630835h-2.72508834l-.03808815-.1797285c.55941975-.1214059 1.19501581-.3172029 1.58006323-.5266877.23567045-.1279524.30291984-.2398363.3802864-.54394644l1.27714339-4.94015249h1.6925423l2.59475544 6.19051513z" fill="#1b2073" transform="matrix(1 0 0 -1 0 16)"/><path d="m0 0h20.3925333v2.13333333h-20.3925333z" fill="#1b2073"/><path d="m0 13.8666667h20.3925333v2.1333333h-20.3925333z" fill="#f7b802"/></svg>