<svg fill="#000000" width="64px" height="64px" viewBox="0 0 32 32" version="1.1" xmlns="http://www.w3.org/2000/svg"><g id="SVGRepo_bgCarrier" stroke-width="0"></g><g id="SVGRepo_tracerCarrier" stroke-linecap="round" stroke-linejoin="round"></g><g id="SVGRepo_iconCarrier"> <title>applepay</title> <path d="M20.676 16.784v0.395c-0.028 0.64-0.554 1.149-1.199 1.149-0.028 0-0.057-0.001-0.084-0.003l0.004 0c-0.552 0-0.913-0.285-0.913-0.724 0-0.427 0.347-0.7 0.961-0.741zM22.134 14.048l1.807 5.010c0 0.004-0.091 0.3-0.091 0.309-0.059 0.407-0.406 0.716-0.825 0.716-0.022 0-0.045-0.001-0.067-0.003l0.003 0c-0.017 0.001-0.038 0.001-0.059 0.001-0.097 0-0.192-0.007-0.285-0.021l0.011 0.001v0.832c0.125 0.014 0.27 0.023 0.417 0.024h0.001c1.037 0 1.532-0.39 1.959-1.603l1.874-5.266h-1.085l-1.265 4.073h-0.019l-1.266-4.074zM19.71 13.958c-1.237 0-2.007 0.666-2.064 1.57h0.971c0.102-0.427 0.481-0.74 0.932-0.74 0.044 0 0.086 0.003 0.128 0.009l-0.005-0.001c0.627 0 1.003 0.332 1.003 0.889v0.386l-1.371 0.080c-1.188 0.067-1.859 0.605-1.859 1.48 0.001 0.837 0.679 1.516 1.517 1.516 0.052 0 0.104-0.003 0.154-0.008l-0.006 0.001c0.007 0 0.016 0 0.024 0 0.664 0 1.243-0.362 1.551-0.9l0.005-0.009h0.024v0.823h0.985v-3.449c-0-1.003-0.775-1.646-1.988-1.646zM9.458 13.462c-0.562 0.012-1.037 0.35-1.312 0.35-0.294 0-0.741-0.33-1.226-0.321-0.66 0.017-1.23 0.385-1.532 0.924l-0.005 0.009c-0.181 0.43-0.286 0.931-0.286 1.455 0 0.861 0.283 1.656 0.76 2.298l-0.007-0.010c0.311 0.457 0.686 0.961 1.18 0.942 0.466-0.017 0.65-0.302 1.216-0.302 0.567 0 0.732 0.302 1.225 0.294 0.512-0.009 0.834-0.457 1.143-0.916 0.209-0.302 0.383-0.65 0.504-1.022l0.008-0.029c-0.587-0.262-0.99-0.839-0.996-1.51v-0.001c0.008-0.597 0.325-1.119 0.798-1.414l0.007-0.004c-0.308-0.433-0.799-0.718-1.358-0.741l-0.004-0q-0.057-0.004-0.115-0.002zM13.399 13.087h1.227c0.052-0.008 0.113-0.012 0.174-0.012 0.707 0 1.28 0.573 1.28 1.28 0 0.033-0.001 0.065-0.004 0.097l0-0.004c0.002 0.027 0.003 0.059 0.003 0.092 0 0.71-0.575 1.285-1.285 1.285-0.061 0-0.121-0.004-0.18-0.012l0.007 0.001h-1.223zM12.335 12.189v6.864h1.065v-2.346h1.474c0.035 0.002 0.076 0.003 0.117 0.003 1.203 0 2.178-0.975 2.178-2.178 0-0.032-0.001-0.063-0.002-0.094l0 0.004c0.002-0.031 0.003-0.068 0.003-0.104 0-1.19-0.964-2.154-2.154-2.154-0.038 0-0.076 0.001-0.113 0.003l0.005-0zM9.577 11.664c-0.442 0.044-0.827 0.255-1.098 0.568l-0.002 0.002c-0.247 0.276-0.398 0.642-0.398 1.044 0 0.036 0.001 0.073 0.004 0.108l-0-0.005c0.008 0 0.017 0 0.026 0 0.438 0 0.828-0.203 1.081-0.52l0.002-0.003c0.242-0.289 0.389-0.665 0.389-1.075 0-0.042-0.002-0.083-0.005-0.124l0 0.005zM3.691 7.040h24.92c0.082 0 0.164 0.003 0.246 0.004 0.168 0.003 0.33 0.017 0.488 0.043l-0.020-0.003c0.134 0.023 0.255 0.064 0.366 0.121l-0.007-0.003c0.22 0.113 0.395 0.288 0.506 0.502l0.003 0.006c0.054 0.104 0.095 0.225 0.116 0.353l0.001 0.007c0.023 0.139 0.037 0.301 0.039 0.466v0.002c0.003 0.081 0.004 0.162 0.004 0.246v14.436c0 0.081 0 0.162-0.004 0.245-0.002 0.167-0.016 0.329-0.043 0.487l0.003-0.018c-0.058 0.381-0.293 0.696-0.618 0.863l-0.007 0.003c-0.103 0.054-0.223 0.094-0.35 0.116l-0.007 0.001c-0.139 0.023-0.3 0.038-0.464 0.040l-0.002 0-0.25 0.004h-25.225c-0.082 0-0.166-0.003-0.245-0.004-0.167-0.002-0.329-0.017-0.487-0.043l0.019 0.003c-0.135-0.024-0.256-0.065-0.368-0.121l0.007 0.003c-0.22-0.113-0.395-0.288-0.504-0.502l-0.003-0.006c-0.054-0.104-0.095-0.225-0.116-0.353l-0.001-0.007c-0.024-0.139-0.038-0.3-0.040-0.464l-0-0.002q-0.002-0.123-0.002-0.246v-14.436c0-0.081 0-0.164 0.002-0.246 0.003-0.168 0.018-0.33 0.043-0.489l-0.003 0.020c0.024-0.135 0.065-0.255 0.121-0.366l-0.003 0.008c0.113-0.22 0.288-0.394 0.502-0.504l0.006-0.003c0.104-0.053 0.224-0.094 0.351-0.116l0.008-0.001c0.139-0.023 0.301-0.038 0.466-0.040l0.002-0c0.081-0.003 0.164-0.003 0.245-0.004zM3.691 6.4q-0.284 0-0.567 0.004c-0.202 0.003-0.397 0.021-0.588 0.053l0.023-0.003c-0.582 0.094-1.064 0.457-1.32 0.955l-0.005 0.010c-0.080 0.156-0.141 0.336-0.173 0.526l-0.002 0.011c-0.031 0.168-0.049 0.363-0.050 0.561v0.001q-0.004 0.131-0.005 0.261v14.442c0 0.087 0.002 0.172 0.004 0.259 0.003 0.201 0.021 0.397 0.053 0.587l-0.003-0.022c0.036 0.201 0.097 0.381 0.182 0.547l-0.005-0.011c0.176 0.341 0.446 0.612 0.777 0.783l0.010 0.005c0.155 0.081 0.336 0.142 0.526 0.176l0.011 0.002c0.168 0.029 0.362 0.047 0.56 0.050l0.002 0 0.26 0.004 25.494-0.004c0.201-0.003 0.397-0.021 0.587-0.053l-0.022 0.003c0.201-0.035 0.38-0.096 0.546-0.181l-0.011 0.005c0.342-0.175 0.613-0.447 0.784-0.778l0.005-0.010c0.081-0.156 0.142-0.336 0.175-0.526l0.002-0.011c0.029-0.168 0.047-0.362 0.050-0.56l0-0.002c0.003-0.087 0.004-0.172 0.004-0.26l0.001-0.307v-14.136c0-0.087-0.003-0.172-0.005-0.259-0.003-0.201-0.021-0.397-0.053-0.587l0.003 0.022c-0.126-0.772-0.727-1.374-1.489-1.499l-0.010-0.001c-0.168-0.029-0.363-0.047-0.562-0.050l-0.003-0q-0.283-0.008-0.566-0.004z"></path> </g></svg>